HIERARCHY
ROOT root
{
	OFFSET 0.000000 0.000000 0.000000
	CHANNELS 6 Xposition Yposition Zposition Zrotation Yrotation Xrotation
	JOINT lhip
	{
		OFFSET 0.058581 -0.082280 -0.017664
		CHANNELS 3 Zrotation Yrotation Xrotation
		JOINT lknee
		{
			OFFSET 0.043451 -0.386469 0.008037
			CHANNELS 3 Zrotation Yrotation Xrotation
			JOINT lankle
			{
				OFFSET -0.014790 -0.426874 -0.037428
				CHANNELS 3 Zrotation Yrotation Xrotation
				JOINT ltoe
				{
					OFFSET 0.041054 -0.060286 0.122042
					CHANNELS 3 Zrotation Yrotation Xrotation
					End Site
					{
						OFFSET 0.000000 0.000000 0.000000
					}
				}
			}
		}
	}
	JOINT rhip
	{
		OFFSET -0.060310 -0.090513 -0.013543
		CHANNELS 3 Zrotation Yrotation Xrotation
		JOINT rknee
		{
			OFFSET -0.043257 -0.383688 -0.004843
			CHANNELS 3 Zrotation Yrotation Xrotation
			JOINT rankle
			{
				OFFSET 0.019056 -0.420046 -0.034562
				CHANNELS 3 Zrotation Yrotation Xrotation
				JOINT rtoe
				{
					OFFSET -0.034840 -0.062106 0.130323
					CHANNELS 3 Zrotation Yrotation Xrotation
					End Site
					{
						OFFSET 0.000000 0.000000 0.000000
					}
				}
			}
		}
	}
	JOINT lowerback
	{
		OFFSET 0.004439 0.124404 -0.038385
		CHANNELS 3 Zrotation Yrotation Xrotation
		JOINT upperback
		{
			OFFSET 0.004488 0.137956 0.026820
			CHANNELS 3 Zrotation Yrotation Xrotation
			JOINT chest
			{
				OFFSET -0.002265 0.056032 0.002855
				CHANNELS 3 Zrotation Yrotation Xrotation
				JOINT lowerneck
				{
					OFFSET -0.013390 0.211636 -0.033468
					CHANNELS 3 Zrotation Yrotation Xrotation
					JOINT upperneck
					{
						OFFSET 0.010113 0.088937 0.050410
						CHANNELS 3 Zrotation Yrotation Xrotation
						End Site
						{
							OFFSET 0.000000 0.000000 0.000000
						}
					}
				}
				JOINT lclavicle
				{
					OFFSET 0.071702 0.114000 -0.018898
					CHANNELS 3 Zrotation Yrotation Xrotation
					JOINT lshoulder
					{
						OFFSET 0.122921 0.045205 -0.019046
						CHANNELS 3 Zrotation Yrotation Xrotation
						JOINT lelbow
						{
							OFFSET 0.255332 -0.015649 -0.022946
							CHANNELS 3 Zrotation Yrotation Xrotation
							JOINT lwrist
							{
								OFFSET 0.265709 0.012698 -0.007375
								CHANNELS 3 Zrotation Yrotation Xrotation
								End Site
								{
									OFFSET 0.000000 0.000000 0.000000
								}
							}
						}
					}
				}
				JOINT rclavicle
				{
					OFFSET -0.082954 0.112472 -0.023707
					CHANNELS 3 Zrotation Yrotation Xrotation
					JOINT rshoulder
					{
						OFFSET -0.113228 0.046853 -0.008472
						CHANNELS 3 Zrotation Yrotation Xrotation
						JOINT relbow
						{
							OFFSET -0.260127 -0.014369 -0.031269
							CHANNELS 3 Zrotation Yrotation Xrotation
							JOINT rwrist
							{
								OFFSET -0.269108 0.006794 -0.006027
								CHANNELS 3 Zrotation Yrotation Xrotation
								End Site
								{
									OFFSET 0.000000 0.000000 0.000000
								}
							}
						}
					}
				}
			}
		}
	}
}
MOTION
Frames: 18
Frame Time: 0.033333
1.733206 0.733516 0.989740 -87.559990 3.195248 87.119465 2.705139 0.569686 6.674442 -2.000730 -15.026734 2.047038 4.047149 7.216084 -17.071676 0.000000 -0.000000 0.000000 2.320717 -2.454075 5.272237 3.236954 0.920588 3.662678 2.983180 -5.488029 -14.767240 0.000000 -0.000000 0.000000 -2.035474 1.246838 6.742534 1.673884 -2.974583 1.344337 1.663095 -2.249204 4.008103 4.643914 0.429955 -9.322058 2.058807 -5.778721 1.281106 -27.937937 5.949061 1.182033 -59.049693 -4.681021 6.877362 10.131908 -23.135456 2.704610 -1.326977 -1.627482 -8.472838 26.618035 -3.381857 -1.543279 60.430223 0.257523 11.344011 -14.373722 24.141153 -4.639047 5.334666 -0.477445 -8.373922 
1.732783 0.733637 0.989431 -87.550759 3.338923 87.368349 2.888294 0.454081 6.452764 -2.017926 -14.803738 2.027336 4.162021 7.120365 -17.137293 0.000000 -0.000000 0.000000 2.516833 -2.346200 4.970736 3.201462 0.675718 3.754520 2.673601 -5.510769 -14.655631 0.000000 -0.000000 0.000000 -1.880538 1.240979 6.574527 1.693262 -2.926008 1.216260 1.654500 -2.277084 4.074808 4.492902 0.321001 -8.993362 2.095818 -5.781426 0.767106 -27.792513 5.993860 1.262467 -59.198032 -4.513656 6.889295 10.055024 -23.255358 3.053352 -1.841324 -1.716332 -8.809877 26.522269 -3.571686 -1.530213 60.503751 0.199468 11.288146 -14.309712 24.454658 -4.457121 5.265557 -0.296247 -8.622885 
1.733510 0.734493 0.989550 -87.669168 3.294801 87.519664 3.030784 0.279327 6.226585 -2.310391 -14.773853 2.184376 4.510098 7.361086 -17.156233 0.000000 -0.000000 0.000000 2.224239 -2.306920 5.012646 3.486551 1.615279 4.299705 2.965914 -5.603128 -11.567978 0.000000 -0.000000 0.000000 -1.811114 1.273926 6.411292 1.686388 -2.896223 1.304442 1.555452 -2.261372 4.066170 4.475393 0.055152 -9.157166 2.208631 -5.622468 0.853781 -28.017295 5.935420 1.387789 -58.919087 -4.733150 6.636846 9.720927 -22.924910 3.181109 -2.266935 -1.485101 -8.785791 26.531277 -3.497739 -1.408665 60.408654 0.328194 11.273005 -14.239573 24.222405 -4.650268 5.485181 -0.327808 -8.510698 
1.733273 0.734589 0.989185 -87.659871 3.315038 87.629283 3.117640 0.186763 6.153548 -2.409424 -14.739395 2.140723 4.535510 7.414436 -17.228406 0.000000 -0.000000 0.000000 2.219416 -2.146257 4.941433 3.534800 1.782921 4.331542 3.217449 -5.882135 -11.370561 0.000000 -0.000000 0.000000 -1.767133 1.216476 6.222556 1.721055 -2.862977 1.476643 1.477434 -2.297115 4.235548 4.597853 0.093742 -9.284390 2.420776 -5.792897 0.748621 -28.142219 6.051244 1.177684 -58.854148 -4.823060 6.726444 9.688524 -22.879110 3.117666 -2.331914 -1.509743 -8.590958 26.578944 -3.573260 -1.589248 60.289207 0.447978 11.387696 -14.166793 24.230442 -4.707253 5.474109 -0.325769 -8.317250 
1.733232 0.734581 0.989073 -87.673465 3.338995 87.684383 3.134550 0.162188 6.020096 -2.435586 -14.712901 2.255563 4.561095 7.436540 -17.232359 0.000000 -0.000000 0.000000 2.286749 -2.092271 4.914475 3.471384 1.729702 4.275004 3.145284 -5.942836 -11.364125 0.000000 -0.000000 0.000000 -1.718495 1.209995 6.213361 1.736138 -2.822191 1.432824 1.478978 -2.277113 4.267589 4.661909 0.225716 -9.555565 2.240114 -5.749015 1.293547 -28.265086 6.073394 1.138860 -58.788126 -4.913880 6.720250 9.653772 -22.774456 3.101217 -2.303240 -1.512550 -8.494057 26.628740 -3.615139 -1.557428 60.180443 0.499040 11.437138 -14.209839 24.184197 -4.788115 5.440413 -0.243096 -8.233085 
1.733104 0.734546 0.988892 -87.672828 3.381244 87.733296 3.225703 0.157966 5.959834 -2.532818 -14.664256 2.286428 4.616049 7.415215 -17.189727 0.000000 -0.000000 0.000000 2.285174 -2.129409 4.776854 3.534170 1.725736 4.471296 3.124680 -5.883018 -11.484461 0.000000 -0.000000 0.000000 -1.628264 1.202545 6.278500 1.676509 -2.821959 1.383075 1.497741 -2.221321 4.098381 4.505795 0.455412 -9.510217 2.287486 -5.209669 0.982656 -28.214595 5.931664 1.376580 -58.878932 -4.805312 6.651725 9.736658 -22.958747 3.149032 -2.247885 -1.382061 -8.630432 26.467432 -3.602124 -1.401324 60.218519 0.404876 11.241331 -14.115002 24.351790 -4.691485 5.547260 -0.293334 -8.404245 
1.733085 0.734678 0.988758 -87.686978 3.405134 87.826677 3.293110 0.199277 5.810169 -2.607354 -14.680326 2.402903 4.615861 7.378719 -17.219487 0.000000 -0.000000 0.000000 2.284946 -2.132645 4.653422 3.551448 1.743303 4.513701 3.206177 -5.870878 -11.426027 0.000000 -0.000000 0.000000 -1.611219 1.203330 6.296736 1.700678 -2.769281 1.321370 1.463195 -2.210324 4.076215 4.517380 0.369501 -9.438309 2.189318 -5.403678 1.478388 -28.201079 5.943141 1.390411 -58.895793 -4.919686 6.718897 9.690239 -22.936103 3.162751 -2.302946 -1.458403 -8.674825 26.472519 -3.598423 -1.352954 60.184596 0.451705 11.264670 -14.130724 24.313643 -4.738418 5.550658 -0.228234 -8.383904 
1.733100 0.734723 0.988736 -87.715086 3.410298 87.949980 3.332573 0.175921 5.673028 -2.682040 -14.596102 2.412758 4.617819 7.398087 -17.207757 0.000000 -0.000000 0.000000 2.289080 -2.077855 4.534367 3.571174 1.799524 4.494312 3.224036 -5.948580 -11.428948 0.000000 -0.000000 0.000000 -1.580384 1.163840 6.293145 1.677007 -2.742805 1.171543 1.437180 -2.195906 4.018006 4.631615 0.473637 -9.617794 2.009707 -5.262962 2.183138 -28.259061 5.886934 1.569149 -58.846216 -5.000668 6.744252 9.718923 -22.891761 3.125287 -2.278496 -1.784735 -8.900227 26.461509 -3.592460 -1.195862 60.209791 0.555997 11.285717 -14.236708 24.171134 -4.770891 5.511008 -0.105327 -8.444533 
1.733032 0.734770 0.988781 -87.714053 3.427605 88.045722 3.349013 0.188407 5.588598 -2.670803 -14.584000 2.355151 4.559670 7.362598 -17.183832 0.000000 -0.000000 0.000000 2.329159 -2.068921 4.448086 3.549852 1.825427 4.466061 3.175932 -5.985606 -11.383962 0.000000 -0.000000 0.000000 -1.595146 1.183000 6.282469 1.704754 -2.724977 1.129694 1.448056 -2.213438 4.121867 4.730119 0.378279 -9.706788 2.098690 -5.525842 2.160609 -28.326947 5.906982 1.406680 -58.812850 -5.072791 6.844059 9.659969 -22.903268 3.168050 -2.147295 -1.735043 -8.743523 26.554162 -3.609244 -1.418516 60.085413 0.517963 11.387068 -14.211215 24.241682 -4.856303 5.406249 -0.095642 -8.460016 
1.732847 0.735163 0.988615 -87.757017 3.459567 88.115367 3.418775 0.196745 5.557197 -2.680100 -14.494468 2.328355 4.611409 7.343390 -17.191314 0.000000 -0.000000 0.000000 2.359488 -2.053716 4.414049 3.505613 1.814450 4.444152 3.228602 -5.960232 -11.361097 0.000000 -0.000000 0.000000 -1.607882 1.212179 6.365997 1.726767 -2.703228 1.093727 1.504337 -2.184899 3.918831 4.643720 0.524737 -9.693632 1.964773 -5.162450 2.524096 -28.416543 5.840725 1.636938 -58.767453 -5.066651 6.811905 9.699590 -23.175538 3.104411 -2.218919 -1.719003 -8.689138 26.519643 -3.602936 -1.354698 59.982724 0.378987 11.338093 -14.133630 24.393113 -4.802284 5.507629 -0.072402 -8.468303 
1.732565 0.735215 0.988579 -87.795024 3.451947 88.203364 3.420453 0.279259 5.517424 -2.690689 -14.529211 2.300413 4.582916 7.276893 -17.160213 0.000000 -0.000000 0.000000 2.301506 -2.061074 4.346604 3.549619 1.684388 4.450598 3.308522 -5.782950 -11.285312 0.000000 -0.000000 0.000000 -1.661259 1.240063 6.337663 1.715038 -2.717204 1.200146 1.457534 -2.203220 4.132546 4.440304 0.058307 -9.164933 2.450701 -5.687400 1.211194 -28.256565 5.868692 1.355942 -58.834602 -5.103347 6.962577 9.528240 -23.502398 3.317891 -2.239457 -1.631191 -8.653756 26.570880 -3.600251 -1.611633 60.008342 0.488451 11.313692 -13.954529 24.553368 -4.692777 5.565819 -0.039251 -8.482089 
1.732198 0.735310 0.988478 -87.857665 3.496378 88.231224 3.453910 0.232217 5.600596 -2.631847 -14.438964 2.149185 4.636308 7.323784 -17.134039 0.000000 -0.000000 0.000000 2.348231 -2.118916 4.323670 3.499256 1.705031 4.461652 3.355364 -5.694125 -11.274915 0.000000 -0.000000 0.000000 -1.645319 1.271838 6.470988 1.705259 -2.689846 1.007026 1.534671 -2.202226 3.954645 4.416171 0.673844 -9.140696 2.232691 -4.885065 1.966960 -28.151501 5.765899 1.734928 -58.975111 -5.087303 6.899650 9.618260 -23.646890 3.411064 -2.253790 -1.703289 -8.794743 26.307280 -3.622490 -1.275592 60.214515 0.498021 11.272639 -14.019956 24.683622 -4.609032 5.619878 0.003897 -8.609115 
1.732069 0.735183 0.988634 -87.913877 3.497889 88.358182 3.409641 0.135248 5.443540 -2.614946 -14.361122 2.204727 4.565392 7.434148 -17.060360 0.000000 -0.000000 0.000000 2.294415 -2.064635 4.315849 3.587657 1.737926 4.210641 3.392331 -5.707560 -11.030226 0.000000 -0.000000 0.000000 -1.591382 1.292210 6.469190 1.661515 -2.673821 0.901600 1.475089 -2.204898 4.047762 4.447811 0.653255 -9.112861 2.315299 -5.003857 1.987304 -28.172225 5.793226 1.669616 -58.830594 -5.144483 6.970666 9.578469 -23.911557 3.379465 -2.121986 -1.521970 -8.716782 26.477741 -3.601265 -1.257311 60.080600 0.465324 11.394531 -14.059552 24.851950 -4.651106 5.544775 -0.079180 -8.486691 
1.731839 0.735383 0.988654 -87.940704 3.500451 88.327894 3.432326 0.201318 5.521766 -2.600840 -14.391748 2.151195 4.619733 7.426035 -17.174004 0.000000 -0.000000 0.000000 2.295351 -2.135985 4.406311 3.542506 1.680671 4.141123 3.413215 -5.590050 -11.046931 0.000000 -0.000000 0.000000 -1.623109 1.311013 6.551426 1.657769 -2.667180 0.932727 1.518174 -2.150474 3.995238 4.435248 0.730527 -9.089393 2.305515 -4.906545 2.102207 -28.104394 5.670932 1.697613 -58.821920 -5.207464 6.902772 9.540280 -23.875980 3.377879 -2.199787 -1.607343 -8.784303 26.357052 -3.539715 -1.091036 60.187707 0.432983 11.321375 -14.113546 25.004721 -4.686733 5.640413 0.009656 -8.592999 
1.731594 0.735426 0.988734 -87.935012 3.512880 88.397560 3.444542 0.234376 5.415659 -2.594800 -14.322102 2.225824 4.746772 7.406742 -17.155862 0.000000 -0.000000 0.000000 2.311741 -2.244077 4.274729 3.533369 1.718989 4.300487 3.419912 -5.546458 -11.135860 0.000000 -0.000000 0.000000 -1.569519 1.288162 6.604674 1.637749 -2.681360 0.857782 1.492236 -2.170121 3.931555 4.464529 0.723106 -9.123884 2.308646 -4.785297 2.233522 -28.095408 5.657233 1.879451 -58.782975 -5.239762 6.837447 9.617914 -24.149262 3.303360 -2.153277 -1.596426 -8.906345 26.327490 -3.572922 -1.052901 60.219197 0.422768 11.327329 -14.074462 25.029442 -4.543663 5.687957 0.047594 -8.570057 
1.730983 0.735399 0.988636 -87.943962 3.535205 88.390526 3.478147 0.367935 5.469567 -2.600066 -14.415019 2.235693 4.677032 7.302006 -17.238054 0.000000 -0.000000 0.000000 2.331225 -2.242382 4.353232 3.500412 1.618973 4.233170 3.382694 -5.497950 -11.081601 0.000000 -0.000000 0.000000 -1.553366 1.251717 6.667281 1.659272 -2.696043 0.856643 1.536029 -2.132790 3.930669 4.449689 0.471197 -8.825131 2.420681 -4.990020 1.923729 -28.095956 5.683331 1.836038 -58.761246 -5.218420 6.802391 9.666349 -24.254641 3.253984 -2.094189 -1.584265 -8.908994 26.202219 -3.603662 -1.138158 60.242274 0.288460 11.250454 -13.981478 25.155843 -4.470950 5.680570 0.061459 -8.647139 
1.730566 0.735330 0.988707 -87.894050 3.561544 88.450754 3.494928 0.313825 5.454216 -2.580540 -14.458571 2.184910 4.562841 7.344773 -17.209967 0.000000 -0.000000 0.000000 2.322448 -2.317707 4.382758 3.567530 1.715264 4.102298 3.475556 -5.530168 -11.072385 0.000000 -0.000000 0.000000 -1.505282 1.254702 6.603879 1.670036 -2.735128 0.928195 1.503916 -2.180727 3.999052 4.601078 0.605977 -9.125806 2.532207 -5.014459 1.833648 -28.012592 5.623466 1.704089 -58.661090 -5.211095 6.913797 9.558539 -24.228776 3.342410 -2.075614 -1.700597 -8.920656 26.269487 -3.513292 -1.198564 60.146713 0.267756 11.310297 -13.934516 25.193819 -4.487584 5.647533 0.043003 -8.632817 
1.729948 0.735247 0.988550 -87.895618 3.536347 88.511168 3.477473 0.294518 5.398949 -2.649677 -14.402341 2.267614 4.578580 7.344862 -17.215616 0.000000 -0.000000 0.000000 2.312498 -2.287875 4.307847 3.534791 1.659604 4.191912 3.418998 -5.563230 -11.077183 0.000000 -0.000000 0.000000 -1.490723 1.217587 6.558930 1.648055 -2.759946 0.857490 1.487631 -2.203577 4.031371 4.491404 0.747728 -8.949881 2.516748 -4.793177 1.782919 -27.990598 5.567146 1.783308 -58.609825 -5.246912 6.822186 9.572112 -24.151496 3.273441 -2.020088 -1.671940 -8.847776 26.178542 -3.507854 -1.066686 60.180978 0.374083 11.266911 -13.897302 25.180830 -4.447385 5.634894 -0.045190 -8.574209 
